# xmcd
#
# Track frame offsets:
# 150
# 16093
# 31985
# 47127
# 68247
# 84363
# 101055
# 121128
# 137185
# 152905
# 167065
# 183433
# 199796
#
# Disc length: 2886 seconds
#
# Revision: 0
# Processed by: cddbd v1.5.2PL0 Copyright (c) Steve Scherf et al.
# Submitted via: Axialis_AX_CDPlayer 2.6
#
DISCID=a90b440d
DTITLE=Kris Allen - Kris Allen
DYEAR=1900
DGENRE=
TTITLE0=Live Like We're Dying
TTITLE1=Before We Come Undone
TTITLE2=Can't Stay Away
TTITLE3=The Truth
TTITLE4=Written All Over My Face
TTITLE5=Bring It Back
TTITLE6=Red Guitar
TTITLE7=Is It Over
TTITLE8=Let It Rain
TTITLE9=Alright With Me
TTITLE10=Lifetime
TTITLE11=I Need To Know
TTITLE12=Heartless
EXTD=www.krisallen.com
EXTT0=
EXTT1=
EXTT2=
EXTT3=
EXTT4=
EXTT5=
EXTT6=
EXTT7=
EXTT8=
EXTT9=
EXTT10=
EXTT11=
EXTT12=
PLAYORDER=
